<svg version="1.1" id="Layer_1" xmlns="http://www.w3.org/2000/svg" xmlns:xlink="http://www.w3.org/1999/xlink" x="0px" y="0px"
	 width="100%" viewBox="0 0 1170 601" enable-background="new 0 0 1170 601" xml:space="preserve">
<path fill="#181818" opacity="1.000000" stroke="none" 
	d="
M709.000000,602.000000 
	C472.666687,602.000000 236.833359,602.000000 1.000032,602.000000 
	C1.000021,401.666687 1.000021,201.333389 1.000010,1.000059 
	C390.999969,1.000039 780.999939,1.000039 1171.000000,1.000020 
	C1171.000000,201.333267 1171.000000,401.666534 1171.000000,601.999878 
	C1017.166687,602.000000 863.333313,602.000000 709.000000,602.000000 
M712.723511,193.826477 
	C715.144775,193.200577 717.566101,192.574677 720.662292,192.072357 
	C721.113708,192.013168 721.565063,191.953964 722.551941,191.901260 
	C722.747864,191.614365 722.943848,191.327469 723.968933,191.077393 
	C729.308411,189.896118 734.647827,188.714844 740.739563,187.709366 
	C748.484497,185.723709 756.229370,183.738052 764.760010,181.775955 
	C779.466919,177.823975 794.173828,173.871994 810.305359,169.537201 
	C804.497070,167.943497 800.230347,166.605331 795.884583,165.612701 
	C784.287598,162.963806 772.656616,160.463409 760.445129,157.421906 
	C752.626465,156.024384 744.807861,154.626846 736.170349,152.947296 
	C734.543152,152.836426 732.893921,152.858154 731.292725,152.591415 
	C724.835938,151.515808 718.394043,150.351151 711.099609,148.982773 
	C703.721130,148.055969 696.342590,147.129181 688.506226,146.017807 
	C688.506226,146.017807 688.018066,146.091568 687.274414,145.918625 
	C686.516113,145.948578 685.757874,145.978516 684.220764,145.772614 
	C675.804077,144.907181 667.387451,144.041763 658.505432,143.006592 
	C658.505432,143.006592 658.018433,143.097092 657.351929,142.947159 
	C656.900391,142.979477 656.448914,143.011795 655.286011,142.863770 
	C652.636047,142.898956 649.978760,143.079834 647.337402,142.945526 
	C631.148376,142.122452 614.962952,141.228012 598.010803,140.171997 
	C585.007202,140.781433 572.003601,141.390854 558.251160,141.853409 
	C557.495300,141.931473 556.739441,142.009537 555.498657,142.013977 
	C555.498657,142.013977 555.043152,142.195923 554.185364,142.134415 
	C544.103455,143.707336 534.021545,145.280258 523.091064,146.830276 
	C515.064209,148.626740 507.037354,150.423203 498.458710,152.234131 
	C497.971039,152.485947 497.483337,152.737762 496.472839,152.947861 
	C496.318268,153.029602 496.163727,153.111328 495.233429,153.194000 
	C480.476013,158.050552 465.718597,162.907104 450.167572,167.716751 
	C429.447174,176.164703 408.726746,184.612671 387.270355,193.132965 
	C385.134491,194.006241 383.001038,194.885590 380.862305,195.751801 
	C367.649780,201.103119 355.081360,208.409622 340.284973,208.944229 
	C338.185608,209.020081 336.106781,209.665146 333.137817,210.016464 
	C324.523407,211.480774 315.842896,212.641220 307.313568,214.496658 
	C299.122894,216.278427 291.088867,218.780319 282.218658,220.954315 
	C256.763092,228.563904 231.825943,237.364410 209.702515,252.747284 
	C233.225174,243.222198 257.257263,235.408630 282.841064,229.808624 
	C302.224243,226.575409 321.607452,223.342194 341.919464,220.204559 
	C365.891174,218.878067 389.862885,217.551590 413.419952,216.248047 
	C412.973999,216.178040 412.024292,216.070511 411.092651,215.876404 
	C400.709747,213.712708 390.320557,211.576874 379.962708,209.298843 
	C378.915619,209.068573 378.062134,207.957947 377.118805,207.255875 
	C378.052521,206.481781 378.880157,205.487122 379.940796,204.976944 
	C382.611145,203.692444 385.386597,202.626465 388.889587,201.354584 
	C392.014923,200.269638 395.140442,199.185181 398.265564,198.099655 
	C416.518219,191.759598 434.770752,185.419281 453.787262,178.978165 
	C466.874359,175.023102 479.961426,171.068054 493.843567,166.998505 
	C505.981415,164.048538 518.119263,161.098587 531.090759,158.167023 
	C540.401123,156.665512 549.711426,155.164001 559.859863,153.829239 
	C562.986877,153.516434 566.107361,153.079559 569.242126,152.912750 
	C581.488770,152.261063 593.739990,151.694824 606.707825,151.540421 
	C613.942688,151.926285 621.186157,152.195755 628.410278,152.727707 
	C637.282410,153.381012 646.138489,154.253540 655.671570,155.441315 
	C665.455383,157.066010 675.239136,158.690720 685.608459,160.773819 
	C694.071106,162.520065 702.533691,164.266327 711.620911,166.408432 
	C717.838928,168.091858 724.056946,169.775284 730.274963,171.458725 
	C730.354309,171.897247 730.433655,172.335770 730.513062,172.774307 
	C728.674194,173.854706 726.835388,174.935089 724.388428,176.032639 
	C724.114929,176.319351 723.841492,176.606049 722.891724,176.805649 
	C721.261230,177.533188 719.630737,178.260742 717.242554,178.985458 
	C712.495239,180.986023 707.747986,182.986588 702.224487,185.002899 
	C679.866089,193.362427 657.028137,200.062637 633.520813,204.494827 
	C641.246033,204.293686 648.904053,203.991104 656.443359,202.881592 
	C672.983948,200.447418 689.464417,197.604660 706.709473,195.001862 
	C708.143311,194.649689 709.577209,194.297516 711.503357,194.003510 
	C711.503357,194.003510 711.953857,193.796555 712.723511,193.826477 
M786.216675,198.350632 
	C752.255859,205.104843 718.294983,211.859039 684.334106,218.613251 
	C684.333740,218.689987 684.333313,218.766724 684.332886,218.843460 
	C721.191345,213.809906 758.049744,208.776352 795.748047,203.742172 
	C804.827515,202.591446 813.907043,201.440735 823.785156,200.574539 
	C832.501282,199.788666 841.217346,199.002777 850.754883,198.528854 
	C857.192017,198.081406 863.629089,197.633957 870.887878,197.465942 
	C881.937195,197.884644 892.986450,198.303345 904.903992,198.965210 
	C925.057007,200.768524 944.197205,206.016983 962.603882,216.139923 
	C967.698059,219.855774 972.792236,223.571609 978.171509,227.873245 
	C992.963806,241.801422 1002.725403,258.897552 1009.614929,278.859375 
	C1011.108521,263.448059 1009.729492,249.423294 1004.841187,235.789337 
	C999.942200,222.125687 991.955933,210.261551 982.194336,198.894577 
	C992.090393,195.674911 1001.484863,193.986404 1009.246521,187.330933 
	C997.672729,188.003326 986.842468,188.632507 975.074463,189.240555 
	C969.057495,189.325485 963.040466,189.410416 956.138428,189.154907 
	C942.439636,188.636002 928.740906,188.117096 914.155457,187.328949 
	C900.778137,186.130920 887.400757,184.932877 873.192627,183.427963 
	C865.179810,182.159485 857.166931,180.890991 848.535156,179.160355 
	C846.781738,179.296036 844.882935,179.043503 843.300598,179.636002 
	C837.146301,181.940445 831.092468,184.513138 824.263123,187.112396 
	C811.835266,190.845734 799.407349,194.579071 786.216675,198.350632 
M296.710999,255.849030 
	C300.874146,254.206406 304.923248,252.137497 309.218414,250.988571 
	C343.513702,241.815002 374.719116,246.267227 400.933990,272.222351 
	C402.046875,273.324188 403.589600,274.603302 404.997467,274.686005 
	C410.063477,274.983398 415.157532,274.802765 420.979675,274.802765 
	C419.765961,273.043671 419.134125,271.915985 418.305420,270.958710 
	C406.265533,257.051514 390.863312,248.668457 373.301147,244.088379 
	C356.593872,239.731232 339.634857,239.085205 323.091919,244.204605 
	C313.749481,247.095734 305.033813,252.012329 295.856384,256.125397 
	C295.856384,256.125397 295.792328,256.299316 295.792328,256.299316 
	C295.792328,256.299316 295.991608,255.971512 296.710999,255.849030 
M1010.706848,337.860138 
	C1003.296265,329.119843 993.277405,325.684143 982.404358,325.338867 
	C964.936462,324.784149 947.441895,325.062775 929.958496,325.020020 
	C929.182373,325.018127 928.405396,325.320770 927.420044,325.524811 
	C920.479004,362.288055 913.568848,398.887360 906.561584,436.001129 
	C915.274048,436.001129 923.406494,435.844116 931.527588,436.079468 
	C934.713745,436.171814 935.947754,434.976929 936.485107,432.032440 
	C937.824280,424.694550 939.277466,417.373596 940.916504,410.098022 
	C941.199707,408.841003 942.554993,406.943634 943.525818,406.873444 
	C948.163025,406.538025 952.854614,406.520111 957.489075,406.878479 
	C958.695862,406.971802 960.196045,408.613770 960.828796,409.903809 
	C964.407959,417.200806 967.640259,424.669556 971.290527,431.929016 
	C972.125305,433.589294 974.095886,435.755463 975.618469,435.816193 
	C984.741394,436.179932 993.886169,435.996521 1003.675415,435.996521 
	C1002.822510,433.798370 1002.278870,432.095184 1001.520508,430.493652 
	C997.689941,422.403656 993.745361,414.367249 989.969116,406.252289 
	C988.696167,403.516693 987.352478,400.561981 991.482178,398.744293 
	C999.700928,395.126862 1005.778198,388.995453 1009.934570,381.283539 
	C1017.452637,367.334167 1020.707275,353.021423 1010.706848,337.860138 
M499.355347,329.099670 
	C493.737488,327.796844 488.155457,325.591431 482.494781,325.366547 
	C467.692596,324.778412 452.856140,325.037506 438.033203,324.994690 
	C427.522888,324.964355 427.848572,325.047119 426.017120,335.573242 
	C422.746643,354.370331 419.041901,373.091858 415.514893,391.844299 
	C412.795868,406.300812 410.070984,420.756256 407.231415,435.834961 
	C415.877869,435.834961 424.009552,435.701630 432.133179,435.898651 
	C435.521698,435.980835 436.675781,434.772980 437.170135,431.433655 
	C438.212280,424.394226 439.656799,417.397736 441.340698,410.482117 
	C441.741425,408.836395 443.538849,406.648804 445.035248,406.334198 
	C448.211853,405.666382 451.629669,406.259827 454.917572,405.976379 
	C458.477509,405.669495 460.432648,407.210724 461.828339,410.344818 
	C465.136139,417.772736 468.583282,425.141602 472.150116,432.448395 
	C472.810394,433.800964 474.269684,435.704590 475.404999,435.736053 
	C484.927734,435.999939 494.460876,435.886169 504.569366,435.886169 
	C499.844177,425.857056 495.680756,416.661377 491.194977,407.625641 
	C488.214264,401.621613 488.120209,401.444550 493.788422,397.936646 
	C504.656189,391.210938 512.009766,381.943207 515.643188,369.466827 
	C521.777344,348.403412 512.127991,335.112885 499.355347,329.099670 
M641.654358,351.012817 
	C636.331665,379.113647 631.008911,407.214447 625.555786,436.003815 
	C634.226990,436.003815 641.867981,435.733307 649.477112,436.108948 
	C653.790466,436.321869 655.337891,434.634003 655.927795,430.669281 
	C656.878174,424.280823 658.506775,417.986267 659.302246,411.584137 
	C659.822144,407.399963 661.793091,406.568176 665.557861,406.744507 
	C671.373657,407.016815 677.229614,407.043457 683.040588,406.701019 
	C706.905151,405.294830 726.955994,393.419037 733.981689,369.327515 
	C740.124023,348.264832 730.643005,329.346802 708.738342,326.613800 
	C689.040894,324.156250 668.881409,325.369232 648.923706,325.132782 
	C647.993286,325.121765 646.421509,326.634766 646.201721,327.663147 
	C644.604919,335.133698 643.278687,342.662109 641.654358,351.012817 
M532.133728,380.475891 
	C528.704712,398.793488 525.275696,417.111084 521.739197,436.002869 
	C524.418823,436.002869 526.056274,436.002960 527.693726,436.002869 
	C547.352661,436.001984 567.011597,436.014771 586.670532,435.991486 
	C592.332825,435.984772 598.002380,436.011688 603.651733,435.708710 
	C604.971924,435.637878 607.143555,434.485138 607.357971,433.492065 
	C608.819519,426.725006 609.862549,419.867554 611.183044,412.214050 
	C592.141785,412.214050 573.764526,412.214050 554.760254,412.214050 
	C556.124268,405.393616 557.115601,399.351379 558.692688,393.466187 
	C559.008301,392.288696 561.546387,390.990417 563.077942,390.967560 
	C576.236511,390.771301 589.400208,390.767487 602.559937,390.918823 
	C605.773010,390.955780 607.493408,390.129303 607.902344,386.714142 
	C608.414368,382.437286 608.978882,378.111938 610.139587,373.981415 
	C611.583191,368.844299 609.331543,368.132294 604.953857,368.204865 
	C592.795288,368.406311 580.628357,368.129700 568.470886,368.362579 
	C564.132385,368.445648 563.227844,366.667969 564.058167,362.945953 
	C564.707886,360.033478 565.469727,357.121887 565.796997,354.167297 
	C566.278198,349.822540 568.030090,347.951416 572.817871,348.053925 
	C587.638550,348.371216 602.471252,348.239807 617.296692,348.064392 
	C618.828491,348.046265 621.417664,346.829437 621.689148,345.721222 
	C623.321472,339.057648 624.420044,332.263275 625.675476,325.628418 
	C624.609009,325.267822 624.301025,325.072815 623.992798,325.072357 
	C598.004272,325.035400 572.015625,325.042023 546.027344,324.949432 
	C543.205627,324.939392 542.442139,326.233185 541.972412,328.759583 
	C538.817017,345.730804 535.501221,362.672211 532.133728,380.475891 
M274.153687,432.718536 
	C273.583496,433.778778 273.013306,434.839020 272.290436,436.183136 
	C281.748932,436.183136 290.745483,436.337982 299.727356,436.044434 
	C301.400055,435.989746 303.583557,434.508850 304.551544,433.040405 
	C307.902863,427.956451 310.694824,422.505859 313.987732,417.379883 
	C314.898743,415.961700 316.794037,414.283020 318.265137,414.256714 
	C331.752594,414.015625 345.247314,414.037079 358.735657,414.250946 
	C359.836456,414.268402 361.554871,416.107513 361.875641,417.380127 
	C363.160034,422.475647 363.834503,427.725403 365.132385,432.816650 
	C365.465851,434.124756 367.227661,435.991913 368.376617,436.023468 
	C377.833496,436.283020 387.300659,436.170044 397.143219,436.170044 
	C388.256378,398.729889 379.484406,361.773651 370.704468,324.783783 
	C361.858948,324.783783 353.529175,325.014923 345.222412,324.678223 
	C341.526001,324.528381 339.724365,325.955963 337.906281,328.933990 
	C316.879669,363.375275 295.714752,397.732056 274.153687,432.718536 
M825.606873,359.895264 
	C823.297974,350.059662 821.063599,340.205536 818.625183,330.402130 
	C818.048828,328.085114 818.402771,324.859100 814.264099,324.952972 
	C806.443726,325.130280 798.613342,324.889404 790.794922,325.104614 
	C789.460266,325.141357 787.660034,326.264099 786.927856,327.423706 
	C778.868774,340.187653 770.967957,353.051697 763.045349,365.901642 
	C752.078003,383.689972 741.110046,401.478027 730.183167,419.291260 
	C726.933655,424.588745 723.821350,429.970398 720.249939,435.980347 
	C729.789795,435.980347 738.430420,436.088501 747.062134,435.861664 
	C748.331726,435.828339 749.982666,434.470795 750.733826,433.272461 
	C754.077148,427.938965 756.958313,422.307220 760.454956,417.083435 
	C761.500122,415.521942 763.971497,414.108093 765.839844,414.041687 
	C774.818298,413.722412 783.813904,413.886169 792.803467,413.881256 
	C798.081055,413.878357 803.358643,413.880737 808.770569,413.880737 
	C810.017212,420.222260 810.974548,425.947723 812.353638,431.569763 
	C812.750854,433.189056 814.317627,435.734589 815.425049,435.775482 
	C824.631409,436.115601 833.855713,435.968323 843.319885,435.968323 
	C841.842590,429.445801 840.562500,423.621948 839.201660,417.817017 
	C834.738586,398.778656 830.246216,379.747223 825.606873,359.895264 
M245.400070,410.049225 
	C244.186935,410.530548 243.002472,411.108429 241.756287,411.478485 
	C227.400604,415.741394 209.855042,411.254761 207.384613,390.873810 
	C206.201355,381.111847 209.505341,371.994354 215.021027,363.865326 
	C223.518127,351.342316 238.760651,344.822540 252.103455,349.313965 
	C258.124542,351.340759 263.167236,356.274109 269.068146,360.161713 
	C275.412964,355.080902 282.749023,349.206268 290.023071,343.381317 
	C289.896667,342.860870 289.895081,342.504517 289.735138,342.246124 
	C281.843079,329.496613 269.834381,324.211609 255.406158,322.740204 
	C233.478409,320.503937 214.570496,327.102814 198.642593,341.955566 
	C184.884262,354.785217 177.620926,370.859467 176.725784,389.760437 
	C175.898727,407.223877 181.426849,421.667877 196.759277,431.130402 
	C208.155487,438.163666 220.721329,439.562775 233.931976,438.153320 
	C250.563721,436.378845 264.518738,429.645569 276.190308,417.484100 
	C270.924469,411.493561 265.786163,405.648041 260.901367,400.090942 
	C255.737396,403.527985 250.950760,406.713837 245.400070,410.049225 
M893.830017,381.275665 
	C897.232605,362.727600 900.635132,344.179535 904.151855,325.009521 
	C894.901672,325.009521 886.277527,324.853943 877.672119,325.185822 
	C876.452271,325.232849 874.556274,327.502747 874.267273,328.994537 
	C869.283997,354.713196 864.493164,380.469238 859.685059,406.221771 
	C857.873901,415.922424 856.125977,425.634918 854.234253,435.969940 
	C863.573547,435.969940 872.211548,436.055054 880.843140,435.857910 
	C881.874634,435.834351 883.539490,434.426666 883.772278,433.401978 
	C885.019348,427.911865 885.859985,422.330963 886.925537,416.797760 
	C889.152710,405.232666 891.432861,393.677734 893.830017,381.275665 
M926.377441,264.018585 
	C928.773193,264.018585 931.169006,264.018585 934.129272,264.018585 
	C907.054443,228.258957 839.534790,218.872757 798.265137,245.451233 
	C803.692627,243.507492 808.578064,241.526947 813.601624,240.001663 
	C829.316589,235.230225 845.410889,234.709610 861.500305,237.086533 
	C878.691895,239.626282 894.728394,245.637177 907.860107,257.334686 
	C913.160522,262.056183 918.235291,265.284515 926.377441,264.018585 
M293.612640,257.516174 
	C293.612640,257.516174 293.493652,257.587097 293.612640,257.516174 
z"/>
<path fill="#AB2324" opacity="1.000000" stroke="none" 
	d="
M1010.869019,338.186310 
	C1020.707275,353.021423 1017.452637,367.334167 1009.934570,381.283539 
	C1005.778198,388.995453 999.700928,395.126862 991.482178,398.744293 
	C987.352478,400.561981 988.696167,403.516693 989.969116,406.252289 
	C993.745361,414.367249 997.689941,422.403656 1001.520508,430.493652 
	C1002.278870,432.095184 1002.822510,433.798370 1003.675415,435.996521 
	C993.886169,435.996521 984.741394,436.179932 975.618469,435.816193 
	C974.095886,435.755463 972.125305,433.589294 971.290527,431.929016 
	C967.640259,424.669556 964.407959,417.200806 960.828796,409.903809 
	C960.196045,408.613770 958.695862,406.971802 957.489075,406.878479 
	C952.854614,406.520111 948.163025,406.538025 943.525818,406.873444 
	C942.554993,406.943634 941.199707,408.841003 940.916504,410.098022 
	C939.277466,417.373596 937.824280,424.694550 936.485107,432.032440 
	C935.947754,434.976929 934.713745,436.171814 931.527588,436.079468 
	C923.406494,435.844116 915.274048,436.001129 906.561584,436.001129 
	C913.568848,398.887360 920.479004,362.288055 927.420044,325.524811 
	C928.405396,325.320770 929.182373,325.018127 929.958496,325.020020 
	C947.441895,325.062775 964.936462,324.784149 982.404358,325.338867 
	C993.277405,325.684143 1003.296265,329.119843 1010.869019,338.186310 
M986.012939,362.521790 
	C985.449829,354.654175 982.749146,350.967804 975.155334,349.976044 
	C968.601440,349.120117 961.891296,349.367249 955.250488,349.376221 
	C954.301636,349.377502 952.691895,350.651947 952.508606,351.562714 
	C950.517944,361.452850 948.751160,371.388031 946.781494,382.081146 
	C953.399292,382.081146 959.344910,382.143799 965.288757,382.067871 
	C977.126953,381.916718 984.565979,375.153442 986.012939,362.521790 
z"/>
<path fill="#AA2324" opacity="1.000000" stroke="none" 
	d="
M499.719086,329.205200 
	C512.127991,335.112885 521.777344,348.403412 515.643188,369.466827 
	C512.009766,381.943207 504.656189,391.210938 493.788422,397.936646 
	C488.120209,401.444550 488.214264,401.621613 491.194977,407.625641 
	C495.680756,416.661377 499.844177,425.857056 504.569366,435.886169 
	C494.460876,435.886169 484.927734,435.999939 475.404999,435.736053 
	C474.269684,435.704590 472.810394,433.800964 472.150116,432.448395 
	C468.583282,425.141602 465.136139,417.772736 461.828339,410.344818 
	C460.432648,407.210724 458.477509,405.669495 454.917572,405.976379 
	C451.629669,406.259827 448.211853,405.666382 445.035248,406.334198 
	C443.538849,406.648804 441.741425,408.836395 441.340698,410.482117 
	C439.656799,417.397736 438.212280,424.394226 437.170135,431.433655 
	C436.675781,434.772980 435.521698,435.980835 432.133179,435.898651 
	C424.009552,435.701630 415.877869,435.834961 407.231415,435.834961 
	C410.070984,420.756256 412.795868,406.300812 415.514893,391.844299 
	C419.041901,373.091858 422.746643,354.370331 426.017120,335.573242 
	C427.848572,325.047119 427.522888,324.964355 438.033203,324.994690 
	C452.856140,325.037506 467.692596,324.778412 482.494781,325.366547 
	C488.155457,325.591431 493.737488,327.796844 499.719086,329.205200 
M456.071381,349.240204 
	C455.024170,350.444824 453.342773,351.507690 453.036530,352.877930 
	C451.482178,359.832581 450.262054,366.862854 448.973907,373.875641 
	C448.515442,376.371552 448.195160,378.892914 447.711731,382.057861 
	C452.542694,382.057861 456.495361,382.083557 460.447540,382.049469 
	C463.434509,382.023712 466.464294,382.222504 469.399323,381.797882 
	C478.684692,380.454437 484.298981,375.020203 486.239685,365.885223 
	C488.104462,357.107666 484.322571,351.039215 475.343170,349.814728 
	C469.302612,348.990997 463.097137,349.376221 456.071381,349.240204 
z"/>
<path fill="#AB2323" opacity="1.000000" stroke="none" 
	d="
M641.760620,350.592529 
	C643.278687,342.662109 644.604919,335.133698 646.201721,327.663147 
	C646.421509,326.634766 647.993286,325.121765 648.923706,325.132782 
	C668.881409,325.369232 689.040894,324.156250 708.738342,326.613800 
	C730.643005,329.346802 740.124023,348.264832 733.981689,369.327515 
	C726.955994,393.419037 706.905151,405.294830 683.040588,406.701019 
	C677.229614,407.043457 671.373657,407.016815 665.557861,406.744507 
	C661.793091,406.568176 659.822144,407.399963 659.302246,411.584137 
	C658.506775,417.986267 656.878174,424.280823 655.927795,430.669281 
	C655.337891,434.634003 653.790466,436.321869 649.477112,436.108948 
	C641.867981,435.733307 634.226990,436.003815 625.555786,436.003815 
	C631.008911,407.214447 636.331665,379.113647 641.760620,350.592529 
M675.010498,349.244843 
	C673.701538,350.578735 671.577820,351.725922 671.222168,353.278229 
	C669.519653,360.709106 668.277588,368.246368 666.915466,375.753723 
	C666.578674,377.610413 666.404724,379.496643 666.029785,382.318817 
	C674.361938,381.920898 682.033569,382.177612 689.458191,380.945740 
	C693.364136,380.297668 697.515259,377.711487 700.352661,374.819916 
	C704.868042,370.218323 706.268066,364.071960 704.300598,357.703705 
	C702.367493,351.446533 697.010315,349.894958 691.340088,349.489197 
	C686.217651,349.122620 681.056702,349.294373 675.010498,349.244843 
z"/>
<path fill="#AC2323" opacity="1.000000" stroke="none" 
	d="
M532.185608,380.049591 
	C535.501221,362.672211 538.817017,345.730804 541.972412,328.759583 
	C542.442139,326.233185 543.205627,324.939392 546.027344,324.949432 
	C572.015625,325.042023 598.004272,325.035400 623.992798,325.072357 
	C624.301025,325.072815 624.609009,325.267822 625.675476,325.628418 
	C624.420044,332.263275 623.321472,339.057648 621.689148,345.721222 
	C621.417664,346.829437 618.828491,348.046265 617.296692,348.064392 
	C602.471252,348.239807 587.638550,348.371216 572.817871,348.053925 
	C568.030090,347.951416 566.278198,349.822540 565.796997,354.167297 
	C565.469727,357.121887 564.707886,360.033478 564.058167,362.945953 
	C563.227844,366.667969 564.132385,368.445648 568.470886,368.362579 
	C580.628357,368.129700 592.795288,368.406311 604.953857,368.204865 
	C609.331543,368.132294 611.583191,368.844299 610.139587,373.981415 
	C608.978882,378.111938 608.414368,382.437286 607.902344,386.714142 
	C607.493408,390.129303 605.773010,390.955780 602.559937,390.918823 
	C589.400208,390.767487 576.236511,390.771301 563.077942,390.967560 
	C561.546387,390.990417 559.008301,392.288696 558.692688,393.466187 
	C557.115601,399.351379 556.124268,405.393616 554.760254,412.214050 
	C573.764526,412.214050 592.141785,412.214050 611.183044,412.214050 
	C609.862549,419.867554 608.819519,426.725006 607.357971,433.492065 
	C607.143555,434.485138 604.971924,435.637878 603.651733,435.708710 
	C598.002380,436.011688 592.332825,435.984772 586.670532,435.991486 
	C567.011597,436.014771 547.352661,436.001984 527.693726,436.002869 
	C526.056274,436.002960 524.418823,436.002869 521.739197,436.002869 
	C525.275696,417.111084 528.704712,398.793488 532.185608,380.049591 
z"/>
<path fill="#F7F7F7" opacity="1.000000" stroke="none" 
	d="
M274.370117,432.414917 
	C295.714752,397.732056 316.879669,363.375275 337.906281,328.933990 
	C339.724365,325.955963 341.526001,324.528381 345.222412,324.678223 
	C353.529175,325.014923 361.858948,324.783783 370.704468,324.783783 
	C379.484406,361.773651 388.256378,398.729889 397.143219,436.170044 
	C387.300659,436.170044 377.833496,436.283020 368.376617,436.023468 
	C367.227661,435.991913 365.465851,434.124756 365.132385,432.816650 
	C363.834503,427.725403 363.160034,422.475647 361.875641,417.380127 
	C361.554871,416.107513 359.836456,414.268402 358.735657,414.250946 
	C345.247314,414.037079 331.752594,414.015625 318.265137,414.256714 
	C316.794037,414.283020 314.898743,415.961700 313.987732,417.379883 
	C310.694824,422.505859 307.902863,427.956451 304.551544,433.040405 
	C303.583557,434.508850 301.400055,435.989746 299.727356,436.044434 
	C290.745483,436.337982 281.748932,436.183136 272.290436,436.183136 
	C273.013306,434.839020 273.583496,433.778778 274.370117,432.414917 
M332.450043,385.397552 
	C331.473175,387.195953 330.496307,388.994385 329.394287,391.023193 
	C338.695068,391.023193 347.428284,391.023193 356.608917,391.023193 
	C355.999725,388.453979 355.474121,386.237244 354.992615,383.179230 
	C353.281647,374.416534 351.570709,365.653839 349.579926,355.458069 
	C343.626251,366.045776 338.299774,375.518097 332.450043,385.397552 
z"/>
<path fill="#AA2323" opacity="1.000000" stroke="none" 
	d="
M825.686035,360.304199 
	C830.246216,379.747223 834.738586,398.778656 839.201660,417.817017 
	C840.562500,423.621948 841.842590,429.445801 843.319885,435.968323 
	C833.855713,435.968323 824.631409,436.115601 815.425049,435.775482 
	C814.317627,435.734589 812.750854,433.189056 812.353638,431.569763 
	C810.974548,425.947723 810.017212,420.222260 808.770569,413.880737 
	C803.358643,413.880737 798.081055,413.878357 792.803467,413.881256 
	C783.813904,413.886169 774.818298,413.722412 765.839844,414.041687 
	C763.971497,414.108093 761.500122,415.521942 760.454956,417.083435 
	C756.958313,422.307220 754.077148,427.938965 750.733826,433.272461 
	C749.982666,434.470795 748.331726,435.828339 747.062134,435.861664 
	C738.430420,436.088501 729.789795,435.980347 720.249939,435.980347 
	C723.821350,429.970398 726.933655,424.588745 730.183167,419.291260 
	C741.110046,401.478027 752.078003,383.689972 763.045349,365.901642 
	C770.967957,353.051697 778.868774,340.187653 786.927856,327.423706 
	C787.660034,326.264099 789.460266,325.141357 790.794922,325.104614 
	C798.613342,324.889404 806.443726,325.130280 814.264099,324.952972 
	C818.402771,324.859100 818.048828,328.085114 818.625183,330.402130 
	C821.063599,340.205536 823.297974,350.059662 825.686035,360.304199 
M799.062439,368.360260 
	C798.315979,364.711334 797.569519,361.062439 796.822998,357.413544 
	C796.411438,357.354401 795.999939,357.295288 795.588379,357.236176 
	C789.233704,368.310242 782.878967,379.384338 776.376587,390.715759 
	C785.711060,390.715759 794.246948,390.715759 802.909973,390.715759 
	C802.909973,389.417755 803.041748,388.569458 802.889038,387.775909 
	C801.695862,381.575378 800.447998,375.385376 799.062439,368.360260 
z"/>
<path fill="#F7F7F7" opacity="1.000000" stroke="none" 
	d="
M245.782104,409.974487 
	C250.950760,406.713837 255.737396,403.527985 260.901367,400.090942 
	C265.786163,405.648041 270.924469,411.493561 276.190308,417.484100 
	C264.518738,429.645569 250.563721,436.378845 233.931976,438.153320 
	C220.721329,439.562775 208.155487,438.163666 196.759277,431.130402 
	C181.426849,421.667877 175.898727,407.223877 176.725784,389.760437 
	C177.620926,370.859467 184.884262,354.785217 198.642593,341.955566 
	C214.570496,327.102814 233.478409,320.503937 255.406158,322.740204 
	C269.834381,324.211609 281.843079,329.496613 289.735138,342.246124 
	C289.895081,342.504517 289.896667,342.860870 290.023071,343.381317 
	C282.749023,349.206268 275.412964,355.080902 269.068146,360.161713 
	C263.167236,356.274109 258.124542,351.340759 252.103455,349.313965 
	C238.760651,344.822540 223.518127,351.342316 215.021027,363.865326 
	C209.505341,371.994354 206.201355,381.111847 207.384613,390.873810 
	C209.855042,411.254761 227.400604,415.741394 241.756287,411.478485 
	C243.002472,411.108429 244.186935,410.530548 245.782104,409.974487 
z"/>
<path fill="#AA2324" opacity="1.000000" stroke="none" 
	d="
M893.760620,381.697144 
	C891.432861,393.677734 889.152710,405.232666 886.925537,416.797760 
	C885.859985,422.330963 885.019348,427.911865 883.772278,433.401978 
	C883.539490,434.426666 881.874634,435.834351 880.843140,435.857910 
	C872.211548,436.055054 863.573547,435.969940 854.234253,435.969940 
	C856.125977,425.634918 857.873901,415.922424 859.685059,406.221771 
	C864.493164,380.469238 869.283997,354.713196 874.267273,328.994537 
	C874.556274,327.502747 876.452271,325.232849 877.672119,325.185822 
	C886.277527,324.853943 894.901672,325.009521 904.151855,325.009521 
	C900.635132,344.179535 897.232605,362.727600 893.760620,381.697144 
z"/>
<path fill="#9D9B9F" opacity="1.000000" stroke="none" 
	d="
M976.012207,189.261703 
	C986.842468,188.632507 997.672729,188.003326 1009.246521,187.330933 
	C1001.484863,193.986404 992.090393,195.674911 982.194336,198.894577 
	C991.955933,210.261551 999.942200,222.125687 1004.841187,235.789337 
	C1009.729492,249.423294 1011.108521,263.448059 1009.614929,278.859375 
	C1002.725403,258.897552 992.963806,241.801422 978.058350,227.144135 
	C977.686890,224.636368 977.518372,222.838898 977.150024,221.083374 
	C976.543152,218.191254 975.243042,215.327972 975.234375,212.449509 
	C975.210938,204.721100 975.716614,196.991089 976.012207,189.261703 
z"/>
<path fill="#A42325" opacity="1.000000" stroke="none" 
	d="
M925.907654,264.018677 
	C918.235291,265.284515 913.160522,262.056183 907.860107,257.334686 
	C894.728394,245.637177 878.691895,239.626282 861.500305,237.086533 
	C845.410889,234.709610 829.316589,235.230225 813.601624,240.001663 
	C808.578064,241.526947 803.692627,243.507492 798.265137,245.451233 
	C839.534790,218.872757 907.054443,228.258957 934.129272,264.018585 
	C931.169006,264.018585 928.773193,264.018585 925.907654,264.018677 
z"/>
<path fill="#A42325" opacity="1.000000" stroke="none" 
	d="
M296.035828,256.016571 
	C305.033813,252.012329 313.749481,247.095734 323.091919,244.204605 
	C339.634857,239.085205 356.593872,239.731232 373.301147,244.088379 
	C390.863312,248.668457 406.265533,257.051514 418.305420,270.958710 
	C419.134125,271.915985 419.765961,273.043671 420.979675,274.802765 
	C415.157532,274.802765 410.063477,274.983398 404.997467,274.686005 
	C403.589600,274.603302 402.046875,273.324188 400.933990,272.222351 
	C374.719116,246.267227 343.513702,241.815002 309.218414,250.988571 
	C304.923248,252.137497 300.874146,254.206406 296.359192,255.924408 
	C296.007355,255.999802 296.035828,256.016571 296.035828,256.016571 
z"/>
<path fill="#838184" opacity="1.000000" stroke="none" 
	d="
M334.018463,210.046753 
	C336.106781,209.665146 338.185608,209.020081 340.284973,208.944229 
	C355.081360,208.409622 367.649780,201.103119 380.862305,195.751801 
	C383.001038,194.885590 385.134491,194.006241 387.580780,193.472961 
	C387.967438,196.366287 388.043671,198.919586 388.119934,201.472900 
	C385.386597,202.626465 382.611145,203.692444 379.940796,204.976944 
	C378.880157,205.487122 378.052521,206.481781 377.118805,207.255859 
	C378.062134,207.957947 378.915619,209.068573 379.962708,209.298843 
	C390.320557,211.576874 400.709747,213.712708 411.092651,215.876404 
	C412.024292,216.070511 412.973999,216.178040 413.419952,216.248047 
	C389.862885,217.551590 365.891174,218.878067 341.382385,219.804230 
	C336.903900,217.500198 335.316132,213.879303 334.018463,210.046753 
z"/>
<path fill="#908D91" opacity="1.000000" stroke="none" 
	d="
M962.017517,215.755157 
	C944.197205,206.016983 925.057007,200.768524 904.523560,198.512756 
	C906.693726,195.441544 909.212463,192.790527 911.811279,190.220520 
	C912.792847,189.249939 913.959717,188.466766 915.042114,187.598175 
	C928.740906,188.117096 942.439636,188.636002 956.577148,189.723907 
	C955.227173,198.579178 954.875488,206.593170 961.167847,213.453537 
	C961.679443,214.011307 961.744812,214.978302 962.017517,215.755157 
z"/>
<path fill="#9D9B9F" opacity="1.000000" stroke="none" 
	d="
M763.974304,181.752380 
	C756.229370,183.738052 748.484497,185.723709 740.345093,187.277618 
	C739.429688,185.853073 738.710327,184.914505 738.421448,183.858200 
	C737.024719,178.750565 734.908752,173.651413 734.659851,168.471786 
	C734.418091,163.439896 736.133362,158.313965 736.989197,153.229324 
	C744.807861,154.626846 752.626465,156.024384 760.743835,158.063354 
	C762.026306,166.386505 767.309753,173.521255 763.974304,181.752380 
z"/>
<path fill="#A4A2A5" opacity="1.000000" stroke="none" 
	d="
M736.579773,153.088318 
	C736.133362,158.313965 734.418091,163.439896 734.659851,168.471786 
	C734.908752,173.651413 737.024719,178.750565 738.421448,183.858200 
	C738.710327,184.914505 739.429688,185.853073 739.968994,187.189728 
	C734.647827,188.714844 729.308411,189.896118 723.330688,191.149200 
	C722.402039,191.380341 722.176758,191.604919 722.016479,191.894760 
	C721.565063,191.953964 721.113708,192.013168 720.315063,191.619888 
	C719.311890,187.107712 718.656067,183.048004 718.000244,178.988281 
	C719.630737,178.260742 721.261230,177.533188 723.509766,176.776810 
	C724.417358,176.503815 724.706970,176.259674 724.996582,176.015503 
	C726.835388,174.935089 728.674194,173.854706 730.513062,172.774307 
	C730.433655,172.335770 730.354309,171.897247 730.274963,171.458725 
	C724.056946,169.775284 717.838928,168.091858 711.297302,165.810913 
	C710.444519,163.350143 709.673523,161.516953 709.437500,159.617294 
	C708.974426,155.889832 707.510132,151.805710 711.946655,149.219391 
	C718.394043,150.351151 724.835938,151.515808 731.292725,152.591415 
	C732.893921,152.858154 734.543152,152.836426 736.579773,153.088318 
z"/>
<path fill="#8C8B8C" opacity="1.000000" stroke="none" 
	d="
M388.504761,201.413742 
	C388.043671,198.919586 387.967438,196.366287 387.948792,193.436798 
	C408.726746,184.612671 429.447174,176.164703 450.575134,168.195068 
	C451.662903,172.141953 452.343109,175.610504 453.023315,179.079041 
	C434.770752,185.419281 416.518219,191.759598 398.265564,198.099655 
	C395.140442,199.185181 392.014923,200.269638 388.504761,201.413742 
z"/>
<path fill="#797979" opacity="1.000000" stroke="none" 
	d="
M333.578125,210.031616 
	C335.316132,213.879303 336.903900,217.500198 340.917969,219.756439 
	C321.607452,223.342194 302.224243,226.575409 282.426453,229.451691 
	C282.336548,226.385101 282.661285,223.675430 282.986023,220.965759 
	C291.088867,218.780319 299.122894,216.278427 307.313568,214.496658 
	C315.842896,212.641220 324.523407,211.480774 333.578125,210.031616 
z"/>
<path fill="#929195" opacity="1.000000" stroke="none" 
	d="
M764.367188,181.764160 
	C767.309753,173.521255 762.026306,166.386505 761.040894,158.304413 
	C772.656616,160.463409 784.287598,162.963806 795.884583,165.612701 
	C800.230347,166.605331 804.497070,167.943497 810.305359,169.537201 
	C794.173828,173.871994 779.466919,177.823975 764.367188,181.764160 
z"/>
<path fill="#BBBABB" opacity="1.000000" stroke="none" 
	d="
M598.776367,140.357330 
	C614.962952,141.228012 631.148376,142.122452 647.337402,142.945526 
	C649.978760,143.079834 652.636047,142.898956 655.645142,143.379501 
	C655.670044,147.607269 655.335754,151.319290 655.001465,155.031326 
	C646.138489,154.253540 637.282410,153.381012 628.410278,152.727707 
	C621.186157,152.195755 613.942688,151.926285 606.348877,150.876312 
	C606.132874,146.393723 606.551819,142.456451 600.701050,142.746765 
	C600.100464,142.776581 599.419861,141.192520 598.776367,140.357330 
z"/>
<path fill="#99979B" opacity="1.000000" stroke="none" 
	d="
M962.310669,215.947540 
	C961.744812,214.978302 961.679443,214.011307 961.167847,213.453537 
	C954.875488,206.593170 955.227173,198.579178 957.019653,189.894135 
	C963.040466,189.410416 969.057495,189.325485 975.543335,189.251129 
	C975.716614,196.991089 975.210938,204.721100 975.234375,212.449509 
	C975.243042,215.327972 976.543152,218.191254 977.150024,221.083374 
	C977.518372,222.838898 977.686890,224.636368 977.915771,226.851227 
	C972.792236,223.571609 967.698059,219.855774 962.310669,215.947540 
z"/>
<path fill="#979798" opacity="1.000000" stroke="none" 
	d="
M453.405273,179.028595 
	C452.343109,175.610504 451.662903,172.141953 450.971924,168.218536 
	C465.718597,162.907104 480.476013,158.050552 495.559875,153.533844 
	C493.604065,158.000336 490.198425,161.886200 493.048523,167.112976 
	C479.961426,171.068054 466.874359,175.023102 453.405273,179.028595 
z"/>
<path fill="#B0B0B0" opacity="1.000000" stroke="none" 
	d="
M598.393555,140.264664 
	C599.419861,141.192520 600.100464,142.776581 600.701050,142.746765 
	C606.551819,142.456451 606.132874,146.393723 605.989746,150.654510 
	C593.739990,151.694824 581.488770,152.261063 569.242126,152.912750 
	C566.107361,153.079559 562.986877,153.516434 559.366455,153.408966 
	C554.955566,148.620697 558.327759,146.201935 561.744202,143.954453 
	C560.576416,143.122849 559.788208,142.561554 559.000000,142.000275 
	C572.003601,141.390854 585.007202,140.781433 598.393555,140.264664 
z"/>
<path fill="#868287" opacity="1.000000" stroke="none" 
	d="
M914.598755,187.463562 
	C913.959717,188.466766 912.792847,189.249939 911.811279,190.220520 
	C909.212463,192.790527 906.693726,195.441544 904.089478,198.391174 
	C892.986450,198.303345 881.937195,197.884644 870.455322,196.951599 
	C871.356384,192.203125 872.689880,187.968979 874.023438,183.734848 
	C887.400757,184.932877 900.778137,186.130920 914.598755,187.463562 
z"/>
<path fill="#A7A6A7" opacity="1.000000" stroke="none" 
	d="
M558.625610,141.926849 
	C559.788208,142.561554 560.576416,143.122849 561.744202,143.954453 
	C558.327759,146.201935 554.955566,148.620697 558.947388,153.325592 
	C549.711426,155.164001 540.401123,156.665512 530.354126,157.985504 
	C525.724426,155.190918 521.297119,152.854858 523.939636,146.853180 
	C534.021545,145.280258 544.103455,143.707336 554.721313,142.280273 
	C555.257324,142.426132 555.685974,142.438614 555.685974,142.438614 
	C555.685974,142.438614 555.983582,142.087616 555.983582,142.087616 
	C556.739441,142.009537 557.495300,141.931473 558.625610,141.926849 
z"/>
<path fill="#B0B0B0" opacity="1.000000" stroke="none" 
	d="
M705.969421,194.928757 
	C689.464417,197.604660 672.983948,200.447418 656.443359,202.881592 
	C648.904053,203.991104 641.246033,204.293686 633.520813,204.494827 
	C657.028137,200.062637 679.866089,193.362427 702.611450,185.416687 
	C703.988770,188.863220 704.979065,191.895981 705.969421,194.928757 
z"/>
<path fill="#9D9B9F" opacity="1.000000" stroke="none" 
	d="
M523.515381,146.841721 
	C521.297119,152.854858 525.724426,155.190918 529.937256,157.976318 
	C518.119263,161.098587 505.981415,164.048538 493.446045,167.055740 
	C490.198425,161.886200 493.604065,158.000336 495.947754,153.533386 
	C496.163727,153.111328 496.318268,153.029602 496.902679,153.167725 
	C497.891846,152.998276 498.451172,152.608963 499.010498,152.219666 
	C507.037354,150.423203 515.064209,148.626740 523.515381,146.841721 
z"/>
<path fill="#707070" opacity="1.000000" stroke="none" 
	d="
M282.602356,220.960037 
	C282.661285,223.675430 282.336548,226.385101 282.011963,229.500153 
	C257.257263,235.408630 233.225174,243.222198 209.702515,252.747284 
	C231.825943,237.364410 256.763092,228.563904 282.602356,220.960037 
z"/>
<path fill="#B3B2B4" opacity="1.000000" stroke="none" 
	d="
M655.336548,155.236328 
	C655.335754,151.319290 655.670044,147.607269 656.000854,143.469666 
	C656.448914,143.011795 656.900391,142.979477 657.772339,143.155853 
	C658.192688,143.364532 658.613403,143.469925 658.613403,143.469925 
	C658.613403,143.469925 658.970764,143.176331 658.970764,143.176331 
	C667.387451,144.041763 675.804077,144.907181 684.611328,146.338196 
	C685.008972,151.374329 685.015991,155.844879 685.022949,160.315430 
	C675.239136,158.690720 665.455383,157.066010 655.336548,155.236328 
z"/>
<path fill="#868287" opacity="1.000000" stroke="none" 
	d="
M849.933472,198.216919 
	C841.217346,199.002777 832.501282,199.788666 823.388062,200.040619 
	C823.661072,195.333115 824.331116,191.159546 825.001221,186.985992 
	C831.092468,184.513138 837.146301,181.940445 843.300598,179.636002 
	C844.882935,179.043503 846.781738,179.296036 848.766113,179.792175 
	C845.985840,186.529877 844.793396,192.540024 849.933472,198.216919 
z"/>
<path fill="#7F7C81" opacity="1.000000" stroke="none" 
	d="
M850.344177,198.372894 
	C844.793396,192.540024 845.985840,186.529877 849.075562,180.023254 
	C857.166931,180.890991 865.179810,182.159485 873.608032,183.581406 
	C872.689880,187.968979 871.356384,192.203125 870.044556,196.811890 
	C863.629089,197.633957 857.192017,198.081406 850.344177,198.372894 
z"/>
<path fill="#ACABAD" opacity="1.000000" stroke="none" 
	d="
M685.315674,160.544617 
	C685.015991,155.844879 685.008972,151.374329 685.000732,146.456116 
	C685.757874,145.978516 686.516113,145.948578 687.730408,146.138779 
	C688.186401,146.358932 688.599548,146.478409 688.599548,146.478409 
	C688.599548,146.478409 688.964111,146.202377 688.964111,146.202377 
	C696.342590,147.129181 703.721130,148.055969 711.523132,149.101074 
	C707.510132,151.805710 708.974426,155.889832 709.437500,159.617294 
	C709.673523,161.516953 710.444519,163.350143 710.984985,165.612976 
	C702.533691,164.266327 694.071106,162.520065 685.315674,160.544617 
z"/>
<path fill="#979798" opacity="1.000000" stroke="none" 
	d="
M794.908203,203.742798 
	C758.049744,208.776352 721.191345,213.809906 684.332886,218.843460 
	C684.333313,218.766724 684.333740,218.689987 684.334106,218.613251 
	C718.294983,211.859039 752.255859,205.104843 786.674927,198.661987 
	C789.724792,200.563141 792.316528,202.152969 794.908203,203.742798 
z"/>
<path fill="#8C8B8C" opacity="1.000000" stroke="none" 
	d="
M795.328125,203.742493 
	C792.316528,202.152969 789.724792,200.563141 787.056274,198.642868 
	C799.407349,194.579071 811.835266,190.845734 824.632202,187.049194 
	C824.331116,191.159546 823.661072,195.333115 822.988770,199.898346 
	C813.907043,201.440735 804.827515,202.591446 795.328125,203.742493 
z"/>
<path fill="#A7A6A7" opacity="1.000000" stroke="none" 
	d="
M706.339478,194.965302 
	C704.979065,191.895981 703.988770,188.863220 702.999573,185.408813 
	C707.747986,182.986588 712.495239,180.986023 717.621399,178.986877 
	C718.656067,183.048004 719.311890,187.107712 719.977539,191.558105 
	C717.566101,192.574677 715.144775,193.200577 712.226685,193.701233 
	C711.397278,193.465622 711.157654,193.588745 711.011047,193.945343 
	C709.577209,194.297516 708.143311,194.649689 706.339478,194.965302 
z"/>
<path fill="#979798" opacity="1.000000" stroke="none" 
	d="
M498.734619,152.226898 
	C498.451172,152.608963 497.891846,152.998276 497.164093,153.188568 
	C497.483337,152.737762 497.971039,152.485947 498.734619,152.226898 
z"/>
<path fill="#B3B2B4" opacity="1.000000" stroke="none" 
	d="
M688.735168,146.110092 
	C688.964111,146.202377 688.599548,146.478409 688.599548,146.478409 
	C688.599548,146.478409 688.186401,146.358932 688.102234,146.225250 
	C688.018066,146.091568 688.506226,146.017807 688.735168,146.110092 
z"/>
<path fill="#BBBABB" opacity="1.000000" stroke="none" 
	d="
M658.738098,143.091461 
	C658.970764,143.176331 658.613403,143.469925 658.613403,143.469925 
	C658.613403,143.469925 658.192688,143.364532 658.105591,143.230804 
	C658.018433,143.097092 658.505432,143.006592 658.738098,143.091461 
z"/>
<path fill="#A7A6A7" opacity="1.000000" stroke="none" 
	d="
M722.284180,191.898010 
	C722.176758,191.604919 722.402039,191.380341 722.916138,191.130798 
	C722.943848,191.327469 722.747864,191.614365 722.284180,191.898010 
z"/>
<path fill="#A7A6A7" opacity="1.000000" stroke="none" 
	d="
M724.692505,176.024078 
	C724.706970,176.259674 724.417358,176.503815 723.847900,176.820358 
	C723.841492,176.606049 724.114929,176.319351 724.692505,176.024078 
z"/>
<path fill="#A42325" opacity="1.000000" stroke="none" 
	d="
M293.553162,257.551636 
	C293.493652,257.587097 293.612640,257.516174 293.553162,257.551636 
z"/>
<path fill="#A42325" opacity="1.000000" stroke="none" 
	d="
M295.999481,255.985657 
	C295.991608,255.971512 295.792328,256.299316 295.792328,256.299316 
	C295.792328,256.299316 295.856384,256.125397 295.946106,256.070984 
	C296.035828,256.016571 296.007355,255.999802 295.999481,255.985657 
z"/>
<path fill="#B0B0B0" opacity="1.000000" stroke="none" 
	d="
M555.741089,142.050797 
	C555.983582,142.087616 555.685974,142.438614 555.685974,142.438614 
	C555.685974,142.438614 555.257324,142.426132 555.150269,142.311035 
	C555.043152,142.195923 555.498657,142.013977 555.741089,142.050797 
z"/>
<path fill="#B0B0B0" opacity="1.000000" stroke="none" 
	d="
M711.257202,193.974426 
	C711.157654,193.588745 711.397278,193.465622 711.841919,193.686279 
	C711.953857,193.796555 711.503357,194.003510 711.257202,193.974426 
z"/>
<path fill="#1C1717" opacity="1.000000" stroke="none" 
	d="
M985.989929,362.945953 
	C984.565979,375.153442 977.126953,381.916718 965.288757,382.067871 
	C959.344910,382.143799 953.399292,382.081146 946.781494,382.081146 
	C948.751160,371.388031 950.517944,361.452850 952.508606,351.562714 
	C952.691895,350.651947 954.301636,349.377502 955.250488,349.376221 
	C961.891296,349.367249 968.601440,349.120117 975.155334,349.976044 
	C982.749146,350.967804 985.449829,354.654175 985.989929,362.945953 
z"/>
<path fill="#1C1717" opacity="1.000000" stroke="none" 
	d="
M456.518433,349.230408 
	C463.097137,349.376221 469.302612,348.990997 475.343170,349.814728 
	C484.322571,351.039215 488.104462,357.107666 486.239685,365.885223 
	C484.298981,375.020203 478.684692,380.454437 469.399323,381.797882 
	C466.464294,382.222504 463.434509,382.023712 460.447540,382.049469 
	C456.495361,382.083557 452.542694,382.057861 447.711731,382.057861 
	C448.195160,378.892914 448.515442,376.371552 448.973907,373.875641 
	C450.262054,366.862854 451.482178,359.832581 453.036530,352.877930 
	C453.342773,351.507690 455.024170,350.444824 456.518433,349.230408 
z"/>
<path fill="#1C1717" opacity="1.000000" stroke="none" 
	d="
M675.461670,349.236755 
	C681.056702,349.294373 686.217651,349.122620 691.340088,349.489197 
	C697.010315,349.894958 702.367493,351.446533 704.300598,357.703705 
	C706.268066,364.071960 704.868042,370.218323 700.352661,374.819916 
	C697.515259,377.711487 693.364136,380.297668 689.458191,380.945740 
	C682.033569,382.177612 674.361938,381.920898 666.029785,382.318817 
	C666.404724,379.496643 666.578674,377.610413 666.915466,375.753723 
	C668.277588,368.246368 669.519653,360.709106 671.222168,353.278229 
	C671.577820,351.725922 673.701538,350.578735 675.461670,349.236755 
z"/>
<path fill="#1B1B1B" opacity="1.000000" stroke="none" 
	d="
M332.973328,384.990448 
	C338.299774,375.518097 343.626251,366.045776 349.579926,355.458069 
	C351.570709,365.653839 353.281647,374.416534 354.718811,383.885864 
	C353.784180,386.622620 354.123627,389.227478 350.547607,389.058960 
	C344.998566,388.797516 339.428131,388.989929 333.976227,388.989929 
	C333.569214,387.366791 333.271271,386.178619 332.973328,384.990448 
z"/>
<path fill="#181818" opacity="1.000000" stroke="none" 
	d="
M332.711670,385.194000 
	C333.271271,386.178619 333.569214,387.366791 333.976227,388.989929 
	C339.428131,388.989929 344.998566,388.797516 350.547607,389.058960 
	C354.123627,389.227478 353.784180,386.622620 354.696777,384.306519 
	C355.474121,386.237244 355.999725,388.453979 356.608917,391.023193 
	C347.428284,391.023193 338.695068,391.023193 329.394287,391.023193 
	C330.496307,388.994385 331.473175,387.195953 332.711670,385.194000 
z"/>
<path fill="#1C1717" opacity="1.000000" stroke="none" 
	d="
M799.139771,368.776184 
	C800.447998,375.385376 801.695862,381.575378 802.889038,387.775909 
	C803.041748,388.569458 802.909973,389.417755 802.909973,390.715759 
	C794.246948,390.715759 785.711060,390.715759 776.376587,390.715759 
	C782.878967,379.384338 789.233704,368.310242 795.588379,357.236176 
	C795.999939,357.295288 796.411438,357.354401 796.822998,357.413544 
	C797.569519,361.062439 798.315979,364.711334 799.139771,368.776184 
z"/>
</svg>